<svg width="20" height="18" viewBox="0 0 20 18" fill="none" xmlns="http://www.w3.org/2000/svg">
<path fill-rule="evenodd" clip-rule="evenodd" d="M9.63544 15.083C9.75274 15.1534 9.87814 15.1846 10 15.183C10.1219 15.1846 10.2473 15.1534 10.3646 15.083L11.4053 14.4586C13.4462 13.2341 15.9423 13.0341 18.1522 13.918C18.9674 14.2441 19.8542 13.6437 19.8542 12.7657V2.0784C19.8542 1.54862 19.5316 1.07221 19.0397 0.875448C16.1934 -0.263084 12.9785 -0.00548053 10.3497 1.57175L10 1.7816L9.65027 1.57175C7.02155 -0.00548053 3.80662 -0.263084 0.960285 0.875448C0.468391 1.07221 0.145844 1.54862 0.145844 2.0784V12.7657C0.145844 13.6437 1.03262 14.2441 1.84783 13.918C4.05773 13.0341 6.55382 13.2341 8.59477 14.4586L9.63544 15.083ZM1.52084 2.13233V12.5702C4.08365 11.6095 6.94915 11.8677 9.3022 13.2796L9.31251 13.2858V2.97261L8.94284 2.75081C6.69794 1.40386 3.95582 1.17622 1.52084 2.13233ZM10.6978 13.2796L10.6875 13.2858V2.97261L11.0572 2.75081C13.3021 1.40386 16.0442 1.17622 18.4792 2.13233V12.5702C15.9164 11.6095 13.0509 11.8677 10.6978 13.2796Z" fill="#6D747A"/>
<path d="M7.50224 15.4554C5.64704 14.3732 3.35298 14.3732 1.49778 15.4554L1.4036 15.5103C1.07563 15.7017 0.964844 16.1226 1.15616 16.4506C1.34748 16.7786 1.76845 16.8894 2.09642 16.698L2.1906 16.6431C3.61768 15.8106 5.38234 15.8106 6.80942 16.6431L7.80607 17.2245C9.1618 18.0153 10.8382 18.0153 12.1939 17.2245L13.1906 16.6431C14.6177 15.8106 16.3823 15.8106 17.8094 16.6431L17.9036 16.698C18.2316 16.8894 18.6525 16.7786 18.8439 16.4506C19.0352 16.1226 18.9244 15.7017 18.5964 15.5103L18.5022 15.4554C16.647 14.3732 14.353 14.3732 12.4978 15.4554L11.5011 16.0368C10.5735 16.5779 9.42649 16.5779 8.49889 16.0368L7.50224 15.4554Z" fill="#6D747A"/>
</svg>
