<svg width="14" height="17" viewBox="0 0 14 17" fill="none" xmlns="http://www.w3.org/2000/svg">
<path d="M8.64633 0.791424C7.74578 -0.138644 6.25415 -0.138645 5.3536 0.791419L0.954997 5.33417C0.702378 5.59507 0.532625 5.9249 0.467123 6.2821C-0.0670731 9.19524 -0.106505 12.1776 0.350484 15.1038L0.512278 16.1398C0.563382 16.4671 0.845223 16.7083 1.17642 16.7083H4.24997C4.5031 16.7083 4.7083 16.5031 4.7083 16.25V9.83331H9.29163V16.25C9.29163 16.5031 9.49684 16.7083 9.74997 16.7083H12.8235C13.1547 16.7083 13.4365 16.4671 13.4876 16.1398L13.6494 15.1038C14.1064 12.1776 14.067 9.19524 13.5328 6.2821C13.4673 5.9249 13.2975 5.59507 13.0449 5.33418L8.64633 0.791424Z" fill="#6D747A"/>
</svg>
