<svg width="18" height="18" viewBox="0 0 18 18" fill="none" xmlns="http://www.w3.org/2000/svg">
<path fill-rule="evenodd" clip-rule="evenodd" d="M6.18509 2.09774C5.01981 1.9675 3.81356 1.9675 2.64828 2.09774C2.36513 2.12939 2.14183 2.35359 2.10998 2.6259C1.97083 3.81567 1.97083 5.01762 2.10998 6.2074C2.14183 6.4797 2.36513 6.70391 2.64828 6.73555C3.81356 6.86579 5.01981 6.86579 6.18509 6.73555C6.46824 6.70391 6.69154 6.4797 6.72339 6.2074C6.86254 5.01762 6.86254 3.81567 6.72339 2.6259C6.69154 2.35359 6.46824 2.12939 6.18509 2.09774ZM2.49555 0.731247C3.76234 0.589666 5.07103 0.589666 6.33782 0.731247C7.24609 0.83276 7.98166 1.54775 8.08908 2.46617C8.24065 3.76207 8.24065 5.07122 8.08908 6.36713C7.98166 7.28555 7.24609 8.00053 6.33782 8.10205C5.07103 8.24363 3.76234 8.24363 2.49555 8.10205C1.58728 8.00053 0.851708 7.28555 0.744291 6.36713C0.592723 5.07122 0.592723 3.76207 0.744291 2.46617C0.851708 1.54775 1.58728 0.83276 2.49555 0.731247Z" fill="#6D747A"/>
<path fill-rule="evenodd" clip-rule="evenodd" d="M6.18509 11.2644C5.01981 11.1342 3.81356 11.1342 2.64828 11.2644C2.36513 11.2961 2.14183 11.5203 2.10998 11.7926C1.97083 12.9823 1.97083 14.1843 2.10998 15.3741C2.14183 15.6464 2.36513 15.8706 2.64828 15.9022C3.81356 16.0325 5.01981 16.0325 6.18509 15.9022C6.46824 15.8706 6.69154 15.6464 6.72339 15.3741C6.86254 14.1843 6.86254 12.9823 6.72339 11.7926C6.69154 11.5203 6.46824 11.2961 6.18509 11.2644ZM2.49555 9.89791C3.76234 9.75633 5.07103 9.75633 6.33782 9.89791C7.24609 9.99943 7.98166 10.7144 8.08908 11.6328C8.24065 12.9287 8.24065 14.2379 8.08908 15.5338C7.98166 16.4522 7.24609 17.1672 6.33782 17.2687C5.07103 17.4103 3.76234 17.4103 2.49555 17.2687C1.58728 17.1672 0.851708 16.4522 0.744291 15.5338C0.592723 14.2379 0.592723 12.9287 0.744291 11.6328C0.851708 10.7144 1.58728 9.99943 2.49555 9.89791Z" fill="#6D747A"/>
<path fill-rule="evenodd" clip-rule="evenodd" d="M15.3518 2.09774C14.1865 1.9675 12.9802 1.9675 11.8149 2.09774C11.5318 2.12939 11.3085 2.35359 11.2766 2.6259C11.1375 3.81567 11.1375 5.01762 11.2766 6.2074C11.3085 6.4797 11.5318 6.70391 11.8149 6.73555C12.9802 6.86579 14.1865 6.86579 15.3518 6.73555C15.6349 6.70391 15.8582 6.4797 15.8901 6.2074C16.0292 5.01762 16.0292 3.81567 15.8901 2.6259C15.8582 2.35359 15.6349 2.12939 15.3518 2.09774ZM11.6622 0.731247C12.929 0.589666 14.2377 0.589666 15.5045 0.731247C16.4128 0.83276 17.1483 1.54775 17.2557 2.46617C17.4073 3.76207 17.4073 5.07122 17.2557 6.36713C17.1483 7.28555 16.4128 8.00053 15.5045 8.10205C14.2377 8.24363 12.929 8.24363 11.6622 8.10205C10.7539 8.00053 10.0184 7.28555 9.91096 6.36713C9.75939 5.07122 9.75939 3.76207 9.91096 2.46617C10.0184 1.54775 10.7539 0.83276 11.6622 0.731247Z" fill="#6D747A"/>
<path fill-rule="evenodd" clip-rule="evenodd" d="M15.3518 11.2644C14.1865 11.1342 12.9802 11.1342 11.8149 11.2644C11.5318 11.2961 11.3085 11.5203 11.2766 11.7926C11.1375 12.9823 11.1375 14.1843 11.2766 15.3741C11.3085 15.6464 11.5318 15.8706 11.8149 15.9022C12.9802 16.0325 14.1865 16.0325 15.3518 15.9022C15.6349 15.8706 15.8582 15.6464 15.8901 15.3741C16.0292 14.1843 16.0292 12.9823 15.8901 11.7926C15.8582 11.5203 15.6349 11.2961 15.3518 11.2644ZM11.6622 9.89791C12.929 9.75633 14.2377 9.75633 15.5045 9.89791C16.4128 9.99943 17.1483 10.7144 17.2557 11.6328C17.4073 12.9287 17.4073 14.2379 17.2557 15.5338C17.1483 16.4522 16.4128 17.1672 15.5045 17.2687C14.2377 17.4103 12.929 17.4103 11.6622 17.2687C10.7539 17.1672 10.0184 16.4522 9.91096 15.5338C9.75939 14.2379 9.75939 12.9287 9.91096 11.6328C10.0184 10.7144 10.7539 9.99943 11.6622 9.89791Z" fill="#6D747A"/>
</svg>
