<svg width="60" height="60" viewBox="0 0 60 60" fill="none" xmlns="http://www.w3.org/2000/svg">
<g clip-path="url(#clip0_31_97)">
<path d="M50 15H47.5V35C47.5 36.375 46.375 37.5 45 37.5H15V40C15 42.75 17.25 45 20 45H45L55 55V20C55 17.25 52.75 15 50 15ZM42.5 27.5V10C42.5 7.25 40.25 5 37.5 5H10C7.25 5 5 7.25 5 10V42.5L15 32.5H37.5C40.25 32.5 42.5 30.25 42.5 27.5Z" fill="#939CA3"/>
<rect x="8.75" y="8.75" width="30" height="20" rx="1" fill="#F5FBFA"/>
</g>
<defs>
<clipPath id="clip0_31_97">
<rect width="60" height="60" fill="white"/>
</clipPath>
</defs>
</svg>
