<svg width="60" height="60" viewBox="0 0 60 60" fill="none" xmlns="http://www.w3.org/2000/svg">
<path fill-rule="evenodd" clip-rule="evenodd" d="M32.5 7.5C32.5 6.11929 31.3807 5 30 5C28.6193 5 27.5 6.11929 27.5 7.5V9.375H26.1065C20.5438 9.375 15.9398 13.7 15.5925 19.2519L15.04 28.0855C14.8294 31.4535 13.6987 34.6991 11.771 37.4689C10.0293 39.9716 11.5799 43.428 14.6072 43.7913L23.125 44.8135V47.5C23.125 51.297 26.203 54.375 30 54.375C33.797 54.375 36.875 51.297 36.875 47.5V44.8134L45.3928 43.7913C48.4201 43.428 49.9707 39.9716 48.229 37.4689C46.3013 34.6991 45.1706 31.4535 44.9599 28.0855L44.4074 19.2519C44.0602 13.7 39.4562 9.375 33.8935 9.375H32.5V7.5ZM26.1065 13.125C22.5239 13.125 19.5589 15.9104 19.3352 19.486L18.7827 28.3196C18.5292 32.3724 17.1686 36.278 14.849 39.6111C14.7231 39.7919 14.8352 40.0418 15.054 40.068L24.3981 41.1893C28.1193 41.6359 31.8806 41.6359 35.6019 41.1893L44.946 40.068C45.1648 40.0418 45.2769 39.7919 45.151 39.6111C42.8314 36.278 41.4707 32.3724 41.2173 28.3196L40.6647 19.4859C40.4411 15.9104 37.476 13.125 33.8935 13.125H26.1065ZM30 50.625C28.2741 50.625 26.875 49.2259 26.875 47.5V45.625H33.125V47.5C33.125 49.2259 31.7259 50.625 30 50.625Z" fill="#939CA3"/>
</svg>
